<svg width="141" height="50" viewBox="0 0 141 50" fill="none" xmlns="http://www.w3.org/2000/svg">
<rect x="0.5" y="0.5" width="140" height="49" rx="4.5" fill="#F9F9F9"/>
<rect x="0.5" y="0.5" width="140" height="49" rx="4.5" stroke="#DDDDDD"/>
<path d="M23.264 20.2H19.596V30H20.632V26.906H23.264C25.756 26.906 27.268 25.646 27.268 23.56C27.268 21.46 25.756 20.2 23.264 20.2ZM23.236 25.996H20.632V21.096H23.236C25.196 21.096 26.232 21.992 26.232 23.56C26.232 25.1 25.196 25.996 23.236 25.996ZM32.4671 30.07C34.6231 30.07 36.2051 28.502 36.2051 26.318C36.2051 24.134 34.6231 22.58 32.4671 22.58C30.3111 22.58 28.7151 24.134 28.7151 26.318C28.7151 28.502 30.3111 30.07 32.4671 30.07ZM32.4671 29.188C30.8991 29.188 29.7231 28.04 29.7231 26.318C29.7231 24.596 30.8991 23.448 32.4671 23.448C34.0351 23.448 35.1971 24.596 35.1971 26.318C35.1971 28.04 34.0351 29.188 32.4671 29.188ZM42.2284 22.58C41.0104 22.58 39.9884 23.112 39.3864 24.092V22.636H38.4344V32.716H39.4284V28.614C40.0444 29.566 41.0524 30.07 42.2284 30.07C44.3284 30.07 45.8964 28.558 45.8964 26.318C45.8964 24.092 44.3284 22.58 42.2284 22.58ZM42.1584 29.188C40.5904 29.188 39.4144 28.04 39.4144 26.318C39.4144 24.61 40.5904 23.448 42.1584 23.448C43.7124 23.448 44.9024 24.61 44.9024 26.318C44.9024 28.04 43.7124 29.188 42.1584 29.188ZM53.7647 22.636V26.5C53.7647 28.18 52.7987 29.174 51.2587 29.174C49.8587 29.174 49.0467 28.376 49.0467 26.808V22.636H48.0527V26.906C48.0527 29.02 49.2847 30.07 51.1607 30.07C52.3367 30.07 53.2887 29.552 53.8067 28.656V30H54.7587V22.636H53.7647ZM57.7426 30H58.7366V19.612H57.7426V30ZM64.2784 22.58C63.1164 22.58 62.0244 22.944 61.2824 23.574L61.7304 24.316C62.3324 23.784 63.2284 23.448 64.1804 23.448C65.5524 23.448 66.2664 24.134 66.2664 25.394V25.842H63.9284C61.8144 25.842 61.0864 26.794 61.0864 27.928C61.0864 29.202 62.1084 30.07 63.7744 30.07C64.9924 30.07 65.8604 29.608 66.3084 28.852V30H67.2604V25.436C67.2604 23.532 66.1824 22.58 64.2784 22.58ZM63.9284 29.286C62.7524 29.286 62.0664 28.754 62.0664 27.9C62.0664 27.144 62.5284 26.584 63.9564 26.584H66.2664V27.788C65.8744 28.754 65.0484 29.286 63.9284 29.286ZM71.1122 24.078V22.636H70.1602V30H71.1542V26.248C71.1542 24.512 72.0922 23.532 73.6322 23.532C73.7022 23.532 73.7862 23.546 73.8702 23.546V22.58C72.5122 22.58 71.5742 23.098 71.1122 24.078ZM76.374 21.026C76.794 21.026 77.102 20.704 77.102 20.298C77.102 19.92 76.78 19.612 76.374 19.612C75.968 19.612 75.646 19.934 75.646 20.312C75.646 20.704 75.968 21.026 76.374 21.026ZM75.87 30H76.864V22.636H75.87V30ZM83.3577 28.838C83.0777 29.09 82.6717 29.216 82.2657 29.216C81.4397 29.216 80.9917 28.74 80.9917 27.872V23.476H83.2317V22.636H80.9917V21.026H79.9977V22.636H78.6817V23.476H79.9977V27.928C79.9977 29.286 80.7677 30.07 82.1537 30.07C82.7277 30.07 83.3157 29.902 83.7077 29.552L83.3577 28.838ZM90.7885 22.636L88.0165 28.894L85.2445 22.636H84.2085L87.4985 29.986L87.1765 30.7C86.7565 31.624 86.3085 31.932 85.6505 31.932C85.1185 31.932 84.6705 31.736 84.3065 31.372L83.8445 32.114C84.2925 32.562 84.9505 32.786 85.6365 32.786C86.6865 32.786 87.4705 32.324 88.0865 30.882L91.7685 22.636H90.7885Z" fill="#737373"/>
<path d="M99.9922 21L104.992 26L109.992 21L111.992 22L104.992 29L97.9922 22L99.9922 21Z" fill="#737373"/>
</svg>
