<svg width="106" height="16" viewBox="0 0 106 16" fill="none" xmlns="http://www.w3.org/2000/svg">
<g clip-path="url(#clip0_3715_21)">
<g clip-path="url(#clip1_3715_21)">
<path d="M16.3333 13.8332H2V0.833171C2 0.741504 1.925 0.666504 1.83333 0.666504H0.666667C0.575 0.666504 0.5 0.741504 0.5 0.833171V15.1665C0.5 15.2582 0.575 15.3332 0.666667 15.3332H16.3333C16.425 15.3332 16.5 15.2582 16.5 15.1665V13.9998C16.5 13.9082 16.425 13.8332 16.3333 13.8332ZM3.5 12.4998H14.6667C14.7583 12.4998 14.8333 12.4248 14.8333 12.3332V3.24984C14.8333 3.09984 14.6521 3.02692 14.5479 3.13109L10.1667 7.51234L7.55417 4.929C7.52284 4.89799 7.48054 4.88059 7.43646 4.88059C7.39238 4.88059 7.35007 4.89799 7.31875 4.929L3.38125 8.879C3.36596 8.89433 3.35385 8.91252 3.34562 8.93255C3.3374 8.95257 3.33322 8.97402 3.33333 8.99567V12.3332C3.33333 12.4248 3.40833 12.4998 3.5 12.4998Z" fill="#23856D"/>
</g>
<path d="M23.588 12V3.96L23.972 4.368H21.608V3.6H24.452V12H23.588ZM30.0079 12.072C29.3599 12.072 28.7839 11.904 28.2799 11.568C27.7759 11.224 27.3799 10.736 27.0919 10.104C26.8039 9.464 26.6599 8.696 26.6599 7.8C26.6599 6.904 26.8039 6.14 27.0919 5.508C27.3799 4.868 27.7759 4.38 28.2799 4.044C28.7839 3.7 29.3599 3.528 30.0079 3.528C30.6559 3.528 31.2319 3.7 31.7359 4.044C32.2399 4.38 32.6359 4.868 32.9239 5.508C33.2199 6.14 33.3679 6.904 33.3679 7.8C33.3679 8.696 33.2199 9.464 32.9239 10.104C32.6359 10.736 32.2399 11.224 31.7359 11.568C31.2319 11.904 30.6559 12.072 30.0079 12.072ZM30.0079 11.28C30.5039 11.28 30.9359 11.148 31.3039 10.884C31.6719 10.612 31.9599 10.22 32.1679 9.708C32.3759 9.188 32.4799 8.552 32.4799 7.8C32.4799 7.048 32.3759 6.416 32.1679 5.904C31.9599 5.384 31.6719 4.992 31.3039 4.728C30.9359 4.456 30.5039 4.32 30.0079 4.32C29.5279 4.32 29.0999 4.456 28.7239 4.728C28.3479 4.992 28.0559 5.384 27.8479 5.904C27.6399 6.416 27.5359 7.048 27.5359 7.8C27.5359 8.552 27.6399 9.188 27.8479 9.708C28.0559 10.22 28.3479 10.612 28.7239 10.884C29.0999 11.148 29.5279 11.28 30.0079 11.28ZM41.3259 12.06C40.7019 12.06 40.1419 11.924 39.6459 11.652C39.1579 11.372 38.7739 10.992 38.4939 10.512C38.2139 10.024 38.0739 9.468 38.0739 8.844C38.0739 8.212 38.2139 7.656 38.4939 7.176C38.7739 6.696 39.1579 6.32 39.6459 6.048C40.1419 5.776 40.7019 5.64 41.3259 5.64C41.8619 5.64 42.3459 5.744 42.7779 5.952C43.2099 6.16 43.5499 6.472 43.7979 6.888L43.1619 7.32C42.9459 7 42.6779 6.764 42.3579 6.612C42.0379 6.46 41.6899 6.384 41.3139 6.384C40.8659 6.384 40.4619 6.488 40.1019 6.696C39.7419 6.896 39.4579 7.18 39.2499 7.548C39.0419 7.916 38.9379 8.348 38.9379 8.844C38.9379 9.34 39.0419 9.772 39.2499 10.14C39.4579 10.508 39.7419 10.796 40.1019 11.004C40.4619 11.204 40.8659 11.304 41.3139 11.304C41.6899 11.304 42.0379 11.228 42.3579 11.076C42.6779 10.924 42.9459 10.692 43.1619 10.38L43.7979 10.812C43.5499 11.22 43.2099 11.532 42.7779 11.748C42.3459 11.956 41.8619 12.06 41.3259 12.06ZM48.1341 12.06C47.5261 12.06 46.9781 11.924 46.4901 11.652C46.0101 11.372 45.6301 10.992 45.3501 10.512C45.0701 10.024 44.9301 9.468 44.9301 8.844C44.9301 8.212 45.0701 7.656 45.3501 7.176C45.6301 6.696 46.0101 6.32 46.4901 6.048C46.9701 5.776 47.5181 5.64 48.1341 5.64C48.7581 5.64 49.3101 5.776 49.7901 6.048C50.2781 6.32 50.6581 6.696 50.9301 7.176C51.2101 7.656 51.3501 8.212 51.3501 8.844C51.3501 9.468 51.2101 10.024 50.9301 10.512C50.6581 10.992 50.2781 11.372 49.7901 11.652C49.3021 11.924 48.7501 12.06 48.1341 12.06ZM48.1341 11.304C48.5901 11.304 48.9941 11.204 49.3461 11.004C49.6981 10.796 49.9741 10.508 50.1741 10.14C50.3821 9.764 50.4861 9.332 50.4861 8.844C50.4861 8.348 50.3821 7.916 50.1741 7.548C49.9741 7.18 49.6981 6.896 49.3461 6.696C48.9941 6.488 48.5941 6.384 48.1461 6.384C47.6981 6.384 47.2981 6.488 46.9461 6.696C46.5941 6.896 46.3141 7.18 46.1061 7.548C45.8981 7.916 45.7941 8.348 45.7941 8.844C45.7941 9.332 45.8981 9.764 46.1061 10.14C46.3141 10.508 46.5941 10.796 46.9461 11.004C47.2981 11.204 47.6941 11.304 48.1341 11.304ZM61.1616 5.64C61.6736 5.64 62.1176 5.74 62.4936 5.94C62.8776 6.132 63.1736 6.428 63.3816 6.828C63.5976 7.228 63.7056 7.732 63.7056 8.34V12H62.8536V8.424C62.8536 7.76 62.6936 7.26 62.3736 6.924C62.0616 6.58 61.6176 6.408 61.0416 6.408C60.6096 6.408 60.2336 6.5 59.9136 6.684C59.6016 6.86 59.3576 7.12 59.1816 7.464C59.0136 7.8 58.9296 8.208 58.9296 8.688V12H58.0776V8.424C58.0776 7.76 57.9176 7.26 57.5976 6.924C57.2776 6.58 56.8296 6.408 56.2536 6.408C55.8296 6.408 55.4576 6.5 55.1376 6.684C54.8176 6.86 54.5696 7.12 54.3936 7.464C54.2256 7.8 54.1416 8.208 54.1416 8.688V12H53.2896V5.7H54.1056V7.404L53.9736 7.104C54.1656 6.648 54.4736 6.292 54.8976 6.036C55.3296 5.772 55.8376 5.64 56.4216 5.64C57.0376 5.64 57.5616 5.796 57.9936 6.108C58.4256 6.412 58.7056 6.872 58.8336 7.488L58.4976 7.356C58.6816 6.844 59.0056 6.432 59.4696 6.12C59.9416 5.8 60.5056 5.64 61.1616 5.64ZM74.0881 5.64C74.6001 5.64 75.0441 5.74 75.4201 5.94C75.8041 6.132 76.1001 6.428 76.3081 6.828C76.5241 7.228 76.6321 7.732 76.6321 8.34V12H75.7801V8.424C75.7801 7.76 75.6201 7.26 75.3001 6.924C74.9881 6.58 74.5441 6.408 73.9681 6.408C73.5361 6.408 73.1601 6.5 72.8401 6.684C72.5281 6.86 72.2841 7.12 72.1081 7.464C71.9401 7.8 71.8561 8.208 71.8561 8.688V12H71.0041V8.424C71.0041 7.76 70.8441 7.26 70.5241 6.924C70.2041 6.58 69.7561 6.408 69.1801 6.408C68.7561 6.408 68.3841 6.5 68.0641 6.684C67.7441 6.86 67.4961 7.12 67.3201 7.464C67.1521 7.8 67.0681 8.208 67.0681 8.688V12H66.2161V5.7H67.0321V7.404L66.9001 7.104C67.0921 6.648 67.4001 6.292 67.8241 6.036C68.2561 5.772 68.7641 5.64 69.3481 5.64C69.9641 5.64 70.4881 5.796 70.9201 6.108C71.3521 6.412 71.6321 6.872 71.7601 7.488L71.4241 7.356C71.6081 6.844 71.9321 6.432 72.3961 6.12C72.8681 5.8 73.4321 5.64 74.0881 5.64ZM81.8187 12.06C81.1627 12.06 80.5867 11.924 80.0907 11.652C79.5947 11.372 79.2067 10.992 78.9267 10.512C78.6467 10.024 78.5067 9.468 78.5067 8.844C78.5067 8.22 78.6387 7.668 78.9027 7.188C79.1747 6.708 79.5427 6.332 80.0067 6.06C80.4787 5.78 81.0067 5.64 81.5907 5.64C82.1827 5.64 82.7067 5.776 83.1627 6.048C83.6267 6.312 83.9907 6.688 84.2547 7.176C84.5187 7.656 84.6507 8.212 84.6507 8.844C84.6507 8.884 84.6467 8.928 84.6387 8.976C84.6387 9.016 84.6387 9.06 84.6387 9.108H79.1547V8.472H84.1827L83.8467 8.724C83.8467 8.268 83.7467 7.864 83.5467 7.512C83.3547 7.152 83.0907 6.872 82.7547 6.672C82.4187 6.472 82.0307 6.372 81.5907 6.372C81.1587 6.372 80.7707 6.472 80.4267 6.672C80.0827 6.872 79.8147 7.152 79.6227 7.512C79.4307 7.872 79.3347 8.284 79.3347 8.748V8.88C79.3347 9.36 79.4387 9.784 79.6467 10.152C79.8627 10.512 80.1587 10.796 80.5347 11.004C80.9187 11.204 81.3547 11.304 81.8427 11.304C82.2267 11.304 82.5827 11.236 82.9107 11.1C83.2467 10.964 83.5347 10.756 83.7747 10.476L84.2547 11.028C83.9747 11.364 83.6227 11.62 83.1987 11.796C82.7827 11.972 82.3227 12.06 81.8187 12.06ZM89.8009 5.64C90.3129 5.64 90.7609 5.74 91.1449 5.94C91.5369 6.132 91.8409 6.428 92.0569 6.828C92.2809 7.228 92.3929 7.732 92.3929 8.34V12H91.5409V8.424C91.5409 7.76 91.3729 7.26 91.0369 6.924C90.7089 6.58 90.2449 6.408 89.6449 6.408C89.1969 6.408 88.8049 6.5 88.4689 6.684C88.1409 6.86 87.8849 7.12 87.7009 7.464C87.5249 7.8 87.4369 8.208 87.4369 8.688V12H86.5849V5.7H87.4009V7.428L87.2689 7.104C87.4689 6.648 87.7889 6.292 88.2289 6.036C88.6689 5.772 89.1929 5.64 89.8009 5.64ZM96.8863 12.06C96.2943 12.06 95.8383 11.9 95.5183 11.58C95.1983 11.26 95.0383 10.808 95.0383 10.224V4.308H95.8903V10.176C95.8903 10.544 95.9823 10.828 96.1663 11.028C96.3583 11.228 96.6303 11.328 96.9823 11.328C97.3583 11.328 97.6703 11.22 97.9183 11.004L98.2183 11.616C98.0503 11.768 97.8463 11.88 97.6063 11.952C97.3743 12.024 97.1343 12.06 96.8863 12.06ZM93.9103 6.408V5.7H97.8103V6.408H93.9103ZM101.661 12.06C101.141 12.06 100.649 11.988 100.185 11.844C99.7213 11.692 99.3573 11.504 99.0933 11.28L99.4773 10.608C99.7333 10.8 100.061 10.968 100.461 11.112C100.861 11.248 101.281 11.316 101.721 11.316C102.321 11.316 102.753 11.224 103.017 11.04C103.281 10.848 103.413 10.596 103.413 10.284C103.413 10.052 103.337 9.872 103.185 9.744C103.041 9.608 102.849 9.508 102.609 9.444C102.369 9.372 102.101 9.312 101.805 9.264C101.509 9.216 101.213 9.16 100.917 9.096C100.629 9.032 100.365 8.94 100.125 8.82C99.8853 8.692 99.6893 8.52 99.5373 8.304C99.3933 8.088 99.3213 7.8 99.3213 7.44C99.3213 7.096 99.4173 6.788 99.6093 6.516C99.8013 6.244 100.081 6.032 100.449 5.88C100.825 5.72 101.281 5.64 101.817 5.64C102.225 5.64 102.633 5.696 103.041 5.808C103.449 5.912 103.785 6.052 104.049 6.228L103.677 6.912C103.397 6.72 103.097 6.584 102.777 6.504C102.457 6.416 102.137 6.372 101.817 6.372C101.249 6.372 100.829 6.472 100.557 6.672C100.293 6.864 100.161 7.112 100.161 7.416C100.161 7.656 100.233 7.844 100.377 7.98C100.529 8.116 100.725 8.224 100.965 8.304C101.213 8.376 101.481 8.436 101.769 8.484C102.065 8.532 102.357 8.592 102.645 8.664C102.941 8.728 103.209 8.82 103.449 8.94C103.697 9.052 103.893 9.216 104.037 9.432C104.189 9.64 104.265 9.916 104.265 10.26C104.265 10.628 104.161 10.948 103.953 11.22C103.753 11.484 103.457 11.692 103.065 11.844C102.681 11.988 102.213 12.06 101.661 12.06Z" fill="#737373"/>
</g>
<defs>
<clipPath id="clip0_3715_21">
<rect width="105" height="16" fill="white" transform="translate(0.5)"/>
</clipPath>
<clipPath id="clip1_3715_21">
<rect width="16" height="14.6667" fill="white" transform="translate(0.5 0.666504)"/>
</clipPath>
</defs>
</svg>
