<svg width="99" height="16" viewBox="0 0 99 16" fill="none" xmlns="http://www.w3.org/2000/svg">
<g clip-path="url(#clip0_3715_16)">
<g clip-path="url(#clip1_3715_16)">
<path d="M8.49934 14.6667C5.20379 14.6232 2.54278 11.9622 2.49934 8.66668C2.54278 5.37113 5.20379 2.71011 8.49934 2.66668C11.7949 2.71011 14.4559 5.37113 14.4993 8.66668C14.4559 11.9622 11.7949 14.6232 8.49934 14.6667ZM8.49934 4.00001C5.93612 4.03376 3.86642 6.10346 3.83268 8.66668C3.86642 11.2299 5.93612 13.2996 8.49934 13.3333C11.0626 13.2996 13.1323 11.2299 13.166 8.66668C13.1323 6.10346 11.0626 4.03376 8.49934 4.00001ZM11.8327 9.33334H7.83268V5.33334H9.16601V8.00001H11.8327V9.33334ZM14.0273 4.47201L12.0213 2.47201L12.9607 1.52734L14.9673 3.52734L14.0273 4.47134V4.47201ZM2.97068 4.47201L2.02734 3.52734L4.02134 1.52734L4.96468 2.47201L2.97201 4.47201H2.97068Z" fill="#23A6F0"/>
</g>
<path d="M21.968 12V11.388L25.46 7.968C25.78 7.656 26.02 7.384 26.18 7.152C26.34 6.912 26.448 6.688 26.504 6.48C26.56 6.272 26.588 6.076 26.588 5.892C26.588 5.404 26.42 5.02 26.084 4.74C25.756 4.46 25.268 4.32 24.62 4.32C24.124 4.32 23.684 4.396 23.3 4.548C22.924 4.7 22.6 4.936 22.328 5.256L21.716 4.728C22.044 4.344 22.464 4.048 22.976 3.84C23.488 3.632 24.06 3.528 24.692 3.528C25.26 3.528 25.752 3.62 26.168 3.804C26.584 3.98 26.904 4.24 27.128 4.584C27.36 4.928 27.476 5.332 27.476 5.796C27.476 6.068 27.436 6.336 27.356 6.6C27.284 6.864 27.148 7.144 26.948 7.44C26.756 7.728 26.472 8.056 26.096 8.424L22.892 11.568L22.652 11.232H27.86V12H21.968ZM28.9883 12V11.388L32.4803 7.968C32.8003 7.656 33.0403 7.384 33.2003 7.152C33.3603 6.912 33.4683 6.688 33.5243 6.48C33.5803 6.272 33.6083 6.076 33.6083 5.892C33.6083 5.404 33.4403 5.02 33.1043 4.74C32.7763 4.46 32.2883 4.32 31.6403 4.32C31.1443 4.32 30.7043 4.396 30.3203 4.548C29.9443 4.7 29.6203 4.936 29.3483 5.256L28.7363 4.728C29.0643 4.344 29.4843 4.048 29.9963 3.84C30.5083 3.632 31.0803 3.528 31.7123 3.528C32.2803 3.528 32.7723 3.62 33.1883 3.804C33.6043 3.98 33.9243 4.24 34.1483 4.584C34.3803 4.928 34.4963 5.332 34.4963 5.796C34.4963 6.068 34.4563 6.336 34.3763 6.6C34.3043 6.864 34.1683 7.144 33.9683 7.44C33.7763 7.728 33.4923 8.056 33.1163 8.424L29.9123 11.568L29.6723 11.232H34.8803V12H28.9883ZM38.9053 12L42.7453 3.6H43.6213L47.4613 12H46.5253L42.9973 4.116H43.3573L39.8293 12H38.9053ZM40.4173 9.756L40.6813 9.036H45.5653L45.8293 9.756H40.4173ZM52.1228 12.06C51.5788 12.06 51.0868 11.936 50.6468 11.688C50.2068 11.432 49.8548 11.068 49.5908 10.596C49.3348 10.116 49.2068 9.532 49.2068 8.844C49.2068 8.156 49.3348 7.576 49.5908 7.104C49.8468 6.624 50.1948 6.26 50.6348 6.012C51.0748 5.764 51.5708 5.64 52.1228 5.64C52.7228 5.64 53.2588 5.776 53.7308 6.048C54.2108 6.312 54.5868 6.688 54.8588 7.176C55.1308 7.656 55.2668 8.212 55.2668 8.844C55.2668 9.484 55.1308 10.044 54.8588 10.524C54.5868 11.004 54.2108 11.38 53.7308 11.652C53.2588 11.924 52.7228 12.06 52.1228 12.06ZM48.8708 14.328V5.7H49.6868V7.596L49.6028 8.856L49.7228 10.128V14.328H48.8708ZM52.0628 11.304C52.5108 11.304 52.9108 11.204 53.2628 11.004C53.6148 10.796 53.8948 10.508 54.1028 10.14C54.3108 9.764 54.4148 9.332 54.4148 8.844C54.4148 8.356 54.3108 7.928 54.1028 7.56C53.8948 7.192 53.6148 6.904 53.2628 6.696C52.9108 6.488 52.5108 6.384 52.0628 6.384C51.6148 6.384 51.2108 6.488 50.8508 6.696C50.4988 6.904 50.2188 7.192 50.0108 7.56C49.8108 7.928 49.7108 8.356 49.7108 8.844C49.7108 9.332 49.8108 9.764 50.0108 10.14C50.2188 10.508 50.4988 10.796 50.8508 11.004C51.2108 11.204 51.6148 11.304 52.0628 11.304ZM57.2036 12V5.7H58.0196V7.416L57.9356 7.116C58.1116 6.636 58.4076 6.272 58.8236 6.024C59.2396 5.768 59.7556 5.64 60.3716 5.64V6.468C60.3396 6.468 60.3076 6.468 60.2756 6.468C60.2436 6.46 60.2116 6.456 60.1796 6.456C59.5156 6.456 58.9956 6.66 58.6196 7.068C58.2436 7.468 58.0556 8.04 58.0556 8.784V12H57.2036ZM62.1263 12V5.7H62.9783V12H62.1263ZM62.5583 4.308C62.3823 4.308 62.2343 4.248 62.1143 4.128C61.9943 4.008 61.9343 3.864 61.9343 3.696C61.9343 3.528 61.9943 3.388 62.1143 3.276C62.2343 3.156 62.3823 3.096 62.5583 3.096C62.7343 3.096 62.8823 3.152 63.0023 3.264C63.1223 3.376 63.1823 3.516 63.1823 3.684C63.1823 3.86 63.1223 4.008 63.0023 4.128C62.8903 4.248 62.7423 4.308 62.5583 4.308ZM65.5489 12V3.096H66.4009V12H65.5489ZM71.5922 12V11.388L75.0842 7.968C75.4042 7.656 75.6442 7.384 75.8042 7.152C75.9642 6.912 76.0722 6.688 76.1282 6.48C76.1842 6.272 76.2122 6.076 76.2122 5.892C76.2122 5.404 76.0442 5.02 75.7082 4.74C75.3802 4.46 74.8922 4.32 74.2442 4.32C73.7482 4.32 73.3082 4.396 72.9242 4.548C72.5482 4.7 72.2242 4.936 71.9522 5.256L71.3402 4.728C71.6682 4.344 72.0882 4.048 72.6002 3.84C73.1122 3.632 73.6842 3.528 74.3162 3.528C74.8842 3.528 75.3762 3.62 75.7922 3.804C76.2082 3.98 76.5282 4.24 76.7522 4.584C76.9842 4.928 77.1002 5.332 77.1002 5.796C77.1002 6.068 77.0602 6.336 76.9802 6.6C76.9082 6.864 76.7722 7.144 76.5722 7.44C76.3802 7.728 76.0962 8.056 75.7202 8.424L72.5162 11.568L72.2762 11.232H77.4842V12H71.5922ZM82.0931 12.072C81.4451 12.072 80.8691 11.904 80.3651 11.568C79.8611 11.224 79.4651 10.736 79.1771 10.104C78.8891 9.464 78.7451 8.696 78.7451 7.8C78.7451 6.904 78.8891 6.14 79.1771 5.508C79.4651 4.868 79.8611 4.38 80.3651 4.044C80.8691 3.7 81.4451 3.528 82.0931 3.528C82.7411 3.528 83.3171 3.7 83.8211 4.044C84.3251 4.38 84.7211 4.868 85.0091 5.508C85.3051 6.14 85.4531 6.904 85.4531 7.8C85.4531 8.696 85.3051 9.464 85.0091 10.104C84.7211 10.736 84.3251 11.224 83.8211 11.568C83.3171 11.904 82.7411 12.072 82.0931 12.072ZM82.0931 11.28C82.5891 11.28 83.0211 11.148 83.3891 10.884C83.7571 10.612 84.0451 10.22 84.2531 9.708C84.4611 9.188 84.5651 8.552 84.5651 7.8C84.5651 7.048 84.4611 6.416 84.2531 5.904C84.0451 5.384 83.7571 4.992 83.3891 4.728C83.0211 4.456 82.5891 4.32 82.0931 4.32C81.6131 4.32 81.1851 4.456 80.8091 4.728C80.4331 4.992 80.1411 5.384 79.9331 5.904C79.7251 6.416 79.6211 7.048 79.6211 7.8C79.6211 8.552 79.7251 9.188 79.9331 9.708C80.1411 10.22 80.4331 10.612 80.8091 10.884C81.1851 11.148 81.6131 11.28 82.0931 11.28ZM86.7344 12V11.388L90.2264 7.968C90.5464 7.656 90.7864 7.384 90.9464 7.152C91.1064 6.912 91.2144 6.688 91.2704 6.48C91.3264 6.272 91.3544 6.076 91.3544 5.892C91.3544 5.404 91.1864 5.02 90.8504 4.74C90.5224 4.46 90.0344 4.32 89.3864 4.32C88.8904 4.32 88.4504 4.396 88.0664 4.548C87.6904 4.7 87.3664 4.936 87.0944 5.256L86.4824 4.728C86.8104 4.344 87.2304 4.048 87.7424 3.84C88.2544 3.632 88.8264 3.528 89.4584 3.528C90.0264 3.528 90.5184 3.62 90.9344 3.804C91.3504 3.98 91.6704 4.24 91.8944 4.584C92.1264 4.928 92.2424 5.332 92.2424 5.796C92.2424 6.068 92.2024 6.336 92.1224 6.6C92.0504 6.864 91.9144 7.144 91.7144 7.44C91.5224 7.728 91.2384 8.056 90.8624 8.424L87.6584 11.568L87.4184 11.232H92.6264V12H86.7344ZM95.3747 12V3.96L95.7587 4.368H93.3947V3.6H96.2387V12H95.3747Z" fill="#737373"/>
</g>
<defs>
<clipPath id="clip0_3715_16">
<rect width="98" height="16" fill="white" transform="translate(0.5)"/>
</clipPath>
<clipPath id="clip1_3715_16">
<rect width="16" height="16" fill="white" transform="translate(0.5)"/>
</clipPath>
</defs>
</svg>
