<svg width="105" height="24" viewBox="0 0 105 24" fill="none" xmlns="http://www.w3.org/2000/svg">
<g clip-path="url(#clip0_3715_25)">
<path d="M1.662 17V7.2H3.93V15.152H8.844V17H1.662ZM13.8542 17.112C12.9955 17.112 12.2395 16.944 11.5862 16.608C10.9422 16.272 10.4429 15.8147 10.0882 15.236C9.73354 14.648 9.5562 13.9807 9.5562 13.234C9.5562 12.478 9.72887 11.8107 10.0742 11.232C10.4289 10.644 10.9095 10.1867 11.5162 9.86C12.1229 9.524 12.8089 9.356 13.5742 9.356C14.3115 9.356 14.9742 9.51467 15.5622 9.832C16.1595 10.14 16.6309 10.588 16.9762 11.176C17.3215 11.7547 17.4942 12.45 17.4942 13.262C17.4942 13.346 17.4895 13.444 17.4802 13.556C17.4709 13.6587 17.4615 13.7567 17.4522 13.85H11.3342V12.576H16.3042L15.4642 12.954C15.4642 12.562 15.3849 12.2213 15.2262 11.932C15.0675 11.6427 14.8482 11.4187 14.5682 11.26C14.2882 11.092 13.9615 11.008 13.5882 11.008C13.2149 11.008 12.8835 11.092 12.5942 11.26C12.3142 11.4187 12.0949 11.6473 11.9362 11.946C11.7775 12.2353 11.6982 12.5807 11.6982 12.982V13.318C11.6982 13.7287 11.7869 14.0927 11.9642 14.41C12.1509 14.718 12.4075 14.956 12.7342 15.124C13.0702 15.2827 13.4622 15.362 13.9102 15.362C14.3115 15.362 14.6615 15.3013 14.9602 15.18C15.2682 15.0587 15.5482 14.8767 15.8002 14.634L16.9622 15.894C16.6169 16.286 16.1829 16.5893 15.6602 16.804C15.1375 17.0093 14.5355 17.112 13.8542 17.112ZM23.5632 17V15.53L23.4232 15.208V12.576C23.4232 12.1093 23.2785 11.7453 22.9892 11.484C22.7092 11.2227 22.2752 11.092 21.6872 11.092C21.2858 11.092 20.8892 11.1573 20.4972 11.288C20.1145 11.4093 19.7878 11.5773 19.5172 11.792L18.7332 10.266C19.1438 9.97667 19.6385 9.75267 20.2172 9.594C20.7958 9.43533 21.3838 9.356 21.9812 9.356C23.1292 9.356 24.0205 9.62667 24.6552 10.168C25.2898 10.7093 25.6072 11.554 25.6072 12.702V17H23.5632ZM21.2672 17.112C20.6792 17.112 20.1752 17.014 19.7552 16.818C19.3352 16.6127 19.0132 16.3373 18.7892 15.992C18.5652 15.6467 18.4532 15.2593 18.4532 14.83C18.4532 14.382 18.5605 13.99 18.7752 13.654C18.9992 13.318 19.3492 13.0567 19.8252 12.87C20.3012 12.674 20.9218 12.576 21.6872 12.576H23.6892V13.85H21.9252C21.4118 13.85 21.0572 13.934 20.8612 14.102C20.6745 14.27 20.5812 14.48 20.5812 14.732C20.5812 15.012 20.6885 15.236 20.9032 15.404C21.1272 15.5627 21.4305 15.642 21.8132 15.642C22.1772 15.642 22.5038 15.558 22.7932 15.39C23.0825 15.2127 23.2925 14.956 23.4232 14.62L23.7592 15.628C23.6005 16.1133 23.3112 16.482 22.8912 16.734C22.4712 16.986 21.9298 17.112 21.2672 17.112ZM27.7838 17V9.468H29.8698V11.596L29.5758 10.98C29.7998 10.448 30.1591 10.0467 30.6538 9.776C31.1484 9.496 31.7504 9.356 32.4598 9.356V11.372C32.3664 11.3627 32.2824 11.358 32.2078 11.358C32.1331 11.3487 32.0538 11.344 31.9698 11.344C31.3724 11.344 30.8871 11.5167 30.5138 11.862C30.1498 12.198 29.9678 12.7253 29.9678 13.444V17H27.7838ZM38.5501 9.356C39.1474 9.356 39.6794 9.47733 40.1461 9.72C40.6221 9.95333 40.9954 10.3173 41.2661 10.812C41.5367 11.2973 41.6721 11.9227 41.6721 12.688V17H39.4881V13.024C39.4881 12.4173 39.3527 11.9693 39.0821 11.68C38.8207 11.3907 38.4474 11.246 37.9621 11.246C37.6167 11.246 37.3041 11.3207 37.0241 11.47C36.7534 11.61 36.5387 11.8293 36.3801 12.128C36.2307 12.4267 36.1561 12.8093 36.1561 13.276V17H33.9721V9.468H36.0581V11.554L35.6661 10.924C35.9367 10.42 36.3241 10.0327 36.8281 9.762C37.3321 9.49133 37.9061 9.356 38.5501 9.356ZM48.1706 17V7.2H50.0466L54.2186 14.116H53.2246L57.3266 7.2H59.1886L59.2166 17H57.0886L57.0746 10.462H57.4666L54.1906 15.964H53.1686L49.8226 10.462H50.2986V17H48.1706ZM65.1717 17.112C64.369 17.112 63.655 16.944 63.0297 16.608C62.4137 16.272 61.9237 15.8147 61.5597 15.236C61.205 14.648 61.0277 13.9807 61.0277 13.234C61.0277 12.478 61.205 11.8107 61.5597 11.232C61.9237 10.644 62.4137 10.1867 63.0297 9.86C63.655 9.524 64.369 9.356 65.1717 9.356C65.965 9.356 66.6744 9.524 67.2997 9.86C67.925 10.1867 68.415 10.6393 68.7697 11.218C69.1244 11.7967 69.3017 12.4687 69.3017 13.234C69.3017 13.9807 69.1244 14.648 68.7697 15.236C68.415 15.8147 67.925 16.272 67.2997 16.608C66.6744 16.944 65.965 17.112 65.1717 17.112ZM65.1717 15.32C65.5357 15.32 65.8624 15.236 66.1517 15.068C66.441 14.9 66.6697 14.662 66.8377 14.354C67.0057 14.0367 67.0897 13.6633 67.0897 13.234C67.0897 12.7953 67.0057 12.422 66.8377 12.114C66.6697 11.806 66.441 11.568 66.1517 11.4C65.8624 11.232 65.5357 11.148 65.1717 11.148C64.8077 11.148 64.481 11.232 64.1917 11.4C63.9024 11.568 63.669 11.806 63.4917 12.114C63.3237 12.422 63.2397 12.7953 63.2397 13.234C63.2397 13.6633 63.3237 14.0367 63.4917 14.354C63.669 14.662 63.9024 14.9 64.1917 15.068C64.481 15.236 64.8077 15.32 65.1717 15.32ZM70.9615 17V9.468H73.0475V11.596L72.7535 10.98C72.9775 10.448 73.3368 10.0467 73.8315 9.776C74.3262 9.496 74.9282 9.356 75.6375 9.356V11.372C75.5442 11.3627 75.4602 11.358 75.3855 11.358C75.3108 11.3487 75.2315 11.344 75.1475 11.344C74.5502 11.344 74.0648 11.5167 73.6915 11.862C73.3275 12.198 73.1455 12.7253 73.1455 13.444V17H70.9615ZM80.8194 17.112C79.9608 17.112 79.2048 16.944 78.5514 16.608C77.9074 16.272 77.4081 15.8147 77.0534 15.236C76.6988 14.648 76.5214 13.9807 76.5214 13.234C76.5214 12.478 76.6941 11.8107 77.0394 11.232C77.3941 10.644 77.8748 10.1867 78.4814 9.86C79.0881 9.524 79.7741 9.356 80.5394 9.356C81.2768 9.356 81.9394 9.51467 82.5274 9.832C83.1248 10.14 83.5961 10.588 83.9414 11.176C84.2868 11.7547 84.4594 12.45 84.4594 13.262C84.4594 13.346 84.4548 13.444 84.4454 13.556C84.4361 13.6587 84.4268 13.7567 84.4174 13.85H78.2994V12.576H83.2694L82.4294 12.954C82.4294 12.562 82.3501 12.2213 82.1914 11.932C82.0328 11.6427 81.8134 11.4187 81.5334 11.26C81.2534 11.092 80.9268 11.008 80.5534 11.008C80.1801 11.008 79.8488 11.092 79.5594 11.26C79.2794 11.4187 79.0601 11.6473 78.9014 11.946C78.7428 12.2353 78.6634 12.5807 78.6634 12.982V13.318C78.6634 13.7287 78.7521 14.0927 78.9294 14.41C79.1161 14.718 79.3728 14.956 79.6994 15.124C80.0354 15.2827 80.4274 15.362 80.8754 15.362C81.2768 15.362 81.6268 15.3013 81.9254 15.18C82.2334 15.0587 82.5134 14.8767 82.7654 14.634L83.9274 15.894C83.5821 16.286 83.1481 16.5893 82.6254 16.804C82.1028 17.0093 81.5008 17.112 80.8194 17.112Z" fill="#737373"/>
<g clip-path="url(#clip1_3715_25)">
<path fill-rule="evenodd" clip-rule="evenodd" d="M95.6808 4.18077C95.7379 4.12347 95.8058 4.07801 95.8806 4.04699C95.9553 4.01597 96.0355 4 96.1164 4C96.1973 4 96.2775 4.01597 96.3522 4.04699C96.427 4.07801 96.4949 4.12347 96.5521 4.18077L103.936 11.5645C103.993 11.6217 104.039 11.6896 104.07 11.7643C104.101 11.8391 104.117 11.9192 104.117 12.0002C104.117 12.0811 104.101 12.1612 104.07 12.236C104.039 12.3107 103.993 12.3786 103.936 12.4358L96.5521 19.8196C96.4365 19.9351 96.2798 20 96.1164 20C95.953 20 95.7963 19.9351 95.6808 19.8196C95.5652 19.704 95.5003 19.5473 95.5003 19.3839C95.5003 19.2205 95.5652 19.0638 95.6808 18.9483L102.63 12.0002L95.6808 5.05205C95.6235 4.9949 95.578 4.927 95.547 4.85224C95.516 4.77749 95.5 4.69735 95.5 4.61641C95.5 4.53548 95.516 4.45534 95.547 4.38058C95.578 4.30583 95.6235 4.23793 95.6808 4.18077Z" fill="#23A6F0"/>
</g>
</g>
<defs>
<clipPath id="clip0_3715_25">
<rect width="104" height="24" fill="white" transform="translate(0.5)"/>
</clipPath>
<clipPath id="clip1_3715_25">
<rect width="9" height="16" fill="white" transform="translate(95.5 4)"/>
</clipPath>
</defs>
</svg>
